<svg id="visual" viewBox="0 0 900 600" width="900" height="600" xmlns="http://www.w3.org/2000/svg" xmlns:xlink="http://www.w3.org/1999/xlink" version="1.1"><rect x="0" y="0" width="900" height="600" fill="#ffffff"></rect><path d="M0 502L21.5 503.8C43 505.7 86 509.3 128.8 504C171.7 498.7 214.3 484.3 257.2 487C300 489.7 343 509.3 385.8 514.5C428.7 519.7 471.3 510.3 514.2 510.2C557 510 600 519 642.8 515.7C685.7 512.3 728.3 496.7 771.2 489.8C814 483 857 485 878.5 486L900 487L900 601L878.5 601C857 601 814 601 771.2 601C728.3 601 685.7 601 642.8 601C600 601 557 601 514.2 601C471.3 601 428.7 601 385.8 601C343 601 300 601 257.2 601C214.3 601 171.7 601 128.8 601C86 601 43 601 21.5 601L0 601Z" fill="#5dbeeb"></path><path d="M0 506L21.5 512.7C43 519.3 86 532.7 128.8 537C171.7 541.3 214.3 536.7 257.2 532.3C300 528 343 524 385.8 525C428.7 526 471.3 532 514.2 534.2C557 536.3 600 534.7 642.8 535.7C685.7 536.7 728.3 540.3 771.2 541.2C814 542 857 540 878.5 539L900 538L900 601L878.5 601C857 601 814 601 771.2 601C728.3 601 685.7 601 642.8 601C600 601 557 601 514.2 601C471.3 601 428.7 601 385.8 601C343 601 300 601 257.2 601C214.3 601 171.7 601 128.8 601C86 601 43 601 21.5 601L0 601Z" fill="#7898e7"></path><path d="M0 563L21.5 557.5C43 552 86 541 128.8 539.2C171.7 537.3 214.3 544.7 257.2 545.3C300 546 343 540 385.8 537.8C428.7 535.7 471.3 537.3 514.2 541.3C557 545.3 600 551.7 642.8 553.8C685.7 556 728.3 554 771.2 549.8C814 545.7 857 539.3 878.5 536.2L900 533L900 601L878.5 601C857 601 814 601 771.2 601C728.3 601 685.7 601 642.8 601C600 601 557 601 514.2 601C471.3 601 428.7 601 385.8 601C343 601 300 601 257.2 601C214.3 601 171.7 601 128.8 601C86 601 43 601 21.5 601L0 601Z" fill="#af65bb"></path><path d="M0 577L21.5 577C43 577 86 577 128.8 572.3C171.7 567.7 214.3 558.3 257.2 554.3C300 550.3 343 551.7 385.8 552.3C428.7 553 471.3 553 514.2 555.2C557 557.3 600 561.7 642.8 563.3C685.7 565 728.3 564 771.2 564.7C814 565.3 857 567.7 878.5 568.8L900 570L900 601L878.5 601C857 601 814 601 771.2 601C728.3 601 685.7 601 642.8 601C600 601 557 601 514.2 601C471.3 601 428.7 601 385.8 601C343 601 300 601 257.2 601C214.3 601 171.7 601 128.8 601C86 601 43 601 21.5 601L0 601Z" fill="#c62368"></path></svg>